<svg xmlns="http://www.w3.org/2000/svg" viewBox="0 0 24 24" width="24" height="24">
  <path d="M12 4C8.13 4 4.41 5.53 2.47 7.7L3.88 9.11C5.38 7.43 8.56 6 12 6C15.44 6 18.62 7.43 20.12 9.11L21.53 7.7C19.59 5.53 15.87 4 12 4ZM12 8C9.79 8 7.74 8.9 6.18 10.11L7.53 11.56C8.33 10.93 9.63 10.5 12 10.5C14.37 10.5 15.67 10.93 16.47 11.56L17.82 10.11C16.26 8.9 14.21 8 12 8ZM12 12C10.34 12 8.8 12.53 7.53 13.44L8.88 14.22C9.63 13.81 10.26 13.5 12 13.5C13.74 13.5 14.37 13.81 15.12 14.22L16.47 13.44C15.2 12.53 13.66 12 12 12ZM12 16C11.67 16 11.34 16.05 11.02 16.15L12 17.5L12.98 16.15C12.66 16.05 12.33 16 12 16Z"/>
</svg>
